<svg width="359" height="111" viewBox="0 0 359 111" fill="none" xmlns="http://www.w3.org/2000/svg">
<rect x="4.22827" y="4.13672" width="350" height="102" stroke="#CFD2D7"/>
<!-- <path d="M32.3948 68.8027L32.3947 61.3028L34.0614 61.3027L34.0615 67.136L42.538 67.1361L39.2466 63.8446L40.4251 62.6661L45.7283 67.9694L40.4251 73.2728L39.2466 72.0942L42.538 68.8028L32.3948 68.8027Z" fill="black"/> -->
<!-- <path d="M54.8137 75.1367L60.5977 57.6167H66.9577L72.9577 75.1367H68.8777L64.0297 60.3287L65.2777 60.8327H62.1817L63.4777 60.3287L58.7497 75.1367H54.8137ZM59.2057 70.7927L60.4057 67.5287H67.2697L68.4937 70.7927H59.2057ZM75.2431 75.1367V57.6167H80.6671L84.6751 67.4567H85.1311L89.0911 57.6167H94.6111V75.1367H90.7231V60.1847L91.2751 60.2327L86.6431 71.5847H82.8991L78.2431 60.2327L78.8431 60.1847V75.1367H75.2431ZM98.54 75.1367V57.6167H102.476V75.1367H98.54ZM101.996 75.1367V71.6807H109.34V75.1367H101.996Z" fill="black"/> -->
<rect x="0.228271" y="0.136719" width="8" height="8" fill="black"/>
<rect x="0.228271" y="102.137" width="8" height="8" fill="black"/>
<rect x="350.228" y="0.136719" width="8" height="8" fill="black"/>
<rect x="350.228" y="102.137" width="8" height="8" fill="black"/>
</svg>
