<svg width="46" height="46" viewBox="0 0 46 46" fill="none" xmlns="http://www.w3.org/2000/svg">
<path d="M1 12V5.88889C1 3.18883 3.18883 1 5.88889 1H12" stroke="black" stroke-width="1.22222" stroke-linecap="round"/>
<path d="M45 12V5.88889C45 3.18883 42.8112 1 40.1111 1H34" stroke="black" stroke-width="1.22222" stroke-linecap="round"/>
<path d="M1 34V40.1111C1 42.8112 3.18883 45 5.88889 45H12" stroke="black" stroke-width="1.22222" stroke-linecap="round"/>
<path d="M45 34V40.1111C45 42.8112 42.8112 45 40.1111 45H34" stroke="black" stroke-width="1.22222" stroke-linecap="round"/>
<path d="M30.3788 26.1066C31.9258 22.443 30.5373 18.1152 27.0042 16.0754C24.4511 14.6014 21.4232 14.6946 19.0345 16.0565L18.0422 14.3197C21.028 12.6173 24.8128 12.5008 28.0042 14.3434C32.4949 16.936 34.2139 22.4857 32.1217 27.1129L33.4635 27.8876L29.2984 30.1017L29.1334 25.3876L30.3788 26.1066ZM15.6296 19.9006C14.0826 23.5642 15.4712 27.892 19.0042 29.9318C21.5573 31.4058 24.5851 31.3127 26.9737 29.9508L27.9661 31.6876C24.9803 33.3899 21.1956 33.5064 18.0042 31.6639C13.5136 29.0712 11.7946 23.5215 13.8867 18.8943L12.5449 18.1196L16.71 15.9055L16.8751 20.6196L15.6296 19.9006ZM24.4184 25.832L21.59 23.0036L18.7616 25.832L17.3474 24.4178L21.59 20.1752L24.4184 23.0036L27.2469 20.1752L28.6611 21.5894L24.4184 25.832Z" fill="black"/>
</svg>
